<svg width="40" height="40" viewBox="0 0 40 40" fill="none" xmlns="http://www.w3.org/2000/svg">
<mask id="mask0_163_89" style="mask-type:luminance" maskUnits="userSpaceOnUse" x="0" y="0" width="40" height="34">
<path d="M40 0H0V33.2H40V0Z" fill="white"/>
</mask>
<g mask="url(#mask0_163_89)">
<path d="M20 38.6667C30.3093 38.6667 38.6666 30.3093 38.6666 20C38.6666 9.69069 30.3093 1.33334 20 1.33334C9.69066 1.33334 1.33331 9.69069 1.33331 20C1.33331 30.3093 9.69066 38.6667 20 38.6667Z" fill="transparent"/>
</g>
<path d="M20 23C24.2342 23 27.6666 19.5675 27.6666 15.3333C27.6666 11.0991 24.2342 7.66666 20 7.66666C15.7658 7.66666 12.3333 11.0991 12.3333 15.3333C12.3333 19.5675 15.7658 23 20 23Z" fill="white"/>
<mask id="mask1_163_89" style="mask-type:luminance" maskUnits="userSpaceOnUse" x="1" y="1" width="38" height="38">
<path d="M20 38.6667C30.3093 38.6667 38.6666 30.3093 38.6666 20C38.6666 9.69069 30.3093 1.33334 20 1.33334C9.69066 1.33334 1.33331 9.69069 1.33331 20C1.33331 30.3093 9.69066 38.6667 20 38.6667Z" fill="white"/>
</mask>
<g mask="url(#mask1_163_89)">
<path d="M20 50.3333C27.5479 50.3333 33.6666 44.2146 33.6666 36.6667C33.6666 29.1188 27.5479 23 20 23C12.4521 23 6.33331 29.1188 6.33331 36.6667C6.33331 44.2146 12.4521 50.3333 20 50.3333Z" fill="white"/>
</g>
</svg>
